<svg id="Layer_1" data-name="Layer 1" xmlns="http://www.w3.org/2000/svg" viewBox="0 0 755.88 210.9"><defs><style>.cls-1,.cls-2,.cls-3,.cls-4{isolation:isolate;}.cls-2,.cls-3{opacity:0.12;fill:#4ad8ff;}.cls-2,.cls-3,.cls-4{font-size:72px;font-family:Corbel-BoldItalic, Corbel;font-weight:700;font-style:italic;}.cls-2{letter-spacing:0.29em;}.cls-3,.cls-4{letter-spacing:-0.03em;}.cls-4{fill:#3fc8e8;}.cls-5{fill:#fefefe;}.cls-6{fill:#3fc7e7;}</style></defs><g id="Layer_1-2" data-name="Layer 1"><g id="Polyitech_software" data-name="Polyitech software" class="cls-1"><g class="cls-1"><path d="M23.83,141.41H0L27.05,10.74H59.77q18.45,0,28.41,3.32,11.73,3.92,17,11.82a32.52,32.52,0,0,1,5.27,18.46,43.29,43.29,0,0,1-4,18.79,41.06,41.06,0,0,1-11.82,14.7A56.78,56.78,0,0,1,75.39,87.4a91.75,91.75,0,0,1-26.27,3.42,104.35,104.35,0,0,1-14.55-1ZM38.67,69.92a66.55,66.55,0,0,0,11.53.88,61.86,61.86,0,0,0,16-1.85,34,34,0,0,0,11.33-5.18,21.32,21.32,0,0,0,6.74-8.06,24,24,0,0,0,2.24-10.4,12.11,12.11,0,0,0-2.44-7.71,15.46,15.46,0,0,0-6.54-4.79,25,25,0,0,0-6.45-1.56,79.93,79.93,0,0,0-9.76-.49H46.78Z"/><path d="M166.07,44.43a48,48,0,0,1,15.18,2.25,31.57,31.57,0,0,1,11.62,6.69,29.3,29.3,0,0,1,7.47,11.23A43.36,43.36,0,0,1,203,80.37a83.49,83.49,0,0,1-3.42,24,62.82,62.82,0,0,1-10.1,20.26,49.49,49.49,0,0,1-16.66,14,48.81,48.81,0,0,1-23,5.23,48.22,48.22,0,0,1-15.14-2.25A31.41,31.41,0,0,1,123,134.91a29.57,29.57,0,0,1-7.47-11.18,43.26,43.26,0,0,1-2.64-15.82,83.48,83.48,0,0,1,3.42-24,62.69,62.69,0,0,1,10.11-20.27,49.55,49.55,0,0,1,16.65-14A48.94,48.94,0,0,1,166.07,44.43Zm-2,19a19.86,19.86,0,0,0-8.59,1.85,23.88,23.88,0,0,0-7,5.13,34.09,34.09,0,0,0-5.42,7.57,54.09,54.09,0,0,0-3.86,9.23,66.25,66.25,0,0,0-2.34,10.11,68,68,0,0,0-.78,10.15q0,8.11,3.76,12.79t11.86,4.69a19.82,19.82,0,0,0,8.59-1.85,23.93,23.93,0,0,0,7-5.13,35.32,35.32,0,0,0,5.46-7.57,49,49,0,0,0,3.86-9.23,70.49,70.49,0,0,0,3.08-20.36q0-8-3.81-12.69T164.11,63.38Z"/><path d="M237.7,0h23.05L237.41,112.21a31.8,31.8,0,0,0-.78,5.66,4.59,4.59,0,0,0,1.66,4,8.38,8.38,0,0,0,5,1.22,32.86,32.86,0,0,0,6.93-.78L246,141.6a57.12,57.12,0,0,1-5.76.88,61.27,61.27,0,0,1-6.74.39q-10.35,0-15.58-4.64t-5.22-13.62A51.5,51.5,0,0,1,214,114Z"/><path d="M266.75,46.78h23.54L299,88.28q2.83,13.68,4.69,25.1h.58q5.47-11.32,12.11-23.73L339.7,46.78h26.08l-55.57,97.85q-5.56,9.76-11.18,18a76.63,76.63,0,0,1-12.26,14.11,51.82,51.82,0,0,1-14.64,9.23A47.16,47.16,0,0,1,254,189.26a49.5,49.5,0,0,1-12.3-1.27l3.9-18.36a42,42,0,0,0,7.52.68,25.91,25.91,0,0,0,10.11-1.9,29,29,0,0,0,8.59-5.71,54.18,54.18,0,0,0,7.86-9.53q3.81-5.7,8-13.42Z"/><polygon points="358.41 141.41 381.45 141.41 401.18 46.78 378.13 46.78 358.41 141.41"/><path d="M475.16,65.82H450.55l-9.38,45.61c-.32,1.43-.57,2.68-.73,3.76a19.2,19.2,0,0,0-.24,2.78c0,2.41.65,4.08,1.95,5s3.58,1.41,6.83,1.41a62.64,62.64,0,0,0,8.5-.73q5.17-.74,9.28-1.71L463,141.21a72.61,72.61,0,0,1-10.21,1.95,83.85,83.85,0,0,1-10.4.69,41.82,41.82,0,0,1-11.62-1.42,21.92,21.92,0,0,1-8.05-4.05,15.88,15.88,0,0,1-4.69-6.45,23.07,23.07,0,0,1-1.52-8.59c0-1.11.07-2.42.2-4a45.48,45.48,0,0,1,.88-5.51l10-48.05H409.82l4-19h17.58L437,20.31h23l-5.47,26.47h24.61Z"/><path d="M567.59,70.31a26.67,26.67,0,0,1-3.86,14.21,32.07,32.07,0,0,1-11.37,10.74,61.32,61.32,0,0,1-18.56,6.79,123.27,123.27,0,0,1-25.39,2.34q-1.67,0-4.2-.09v.58a24.71,24.71,0,0,0,1.51,9,15.46,15.46,0,0,0,4.4,6.29,18,18,0,0,0,7,3.57,34.77,34.77,0,0,0,9.18,1.12,74.74,74.74,0,0,0,16-1.85,63.63,63.63,0,0,0,14.65-5l-4.2,20.31a75.16,75.16,0,0,1-13.82,4,86.43,86.43,0,0,1-16.55,1.52A52.89,52.89,0,0,1,504.21,141a34,34,0,0,1-12.74-8A32,32,0,0,1,484,120.9a47,47,0,0,1-2.45-15.53,72.48,72.48,0,0,1,1.57-14.94,70.21,70.21,0,0,1,4.59-14.21,61.14,61.14,0,0,1,7.52-12.6,50.08,50.08,0,0,1,10.4-10.06,49,49,0,0,1,13.23-6.68,50,50,0,0,1,15.92-2.45,46.14,46.14,0,0,1,13.57,1.86,31.11,31.11,0,0,1,10.3,5.22,23.55,23.55,0,0,1,6.6,8.16A23.9,23.9,0,0,1,567.59,70.31Zm-23.24,0a7.32,7.32,0,0,0-2.54-5.56c-1.69-1.57-4.27-2.35-7.72-2.35a22.11,22.11,0,0,0-8,1.56,26,26,0,0,0-7.61,4.64,33.91,33.91,0,0,0-6.4,7.52,39.12,39.12,0,0,0-4.49,10.21A93.15,93.15,0,0,0,525,85a42.09,42.09,0,0,0,11.33-3.61,15.85,15.85,0,0,0,6.15-5.13A10.77,10.77,0,0,0,544.35,70.31Z"/><path d="M653.38,67.87a51.42,51.42,0,0,0-10.5-3.42,47.6,47.6,0,0,0-9.42-1.07A29,29,0,0,0,613.2,71,33.77,33.77,0,0,0,606.85,79a50.32,50.32,0,0,0-4.2,9.13,55.19,55.19,0,0,0-2.34,9.22,52.16,52.16,0,0,0-.74,8.26,27.49,27.49,0,0,0,1.37,9.32,14.48,14.48,0,0,0,3.81,6,14.1,14.1,0,0,0,5.81,3.12,27.28,27.28,0,0,0,7.28.93,55.87,55.87,0,0,0,13.67-1.8,87.37,87.37,0,0,0,14.26-5l-4.2,20.31a81.3,81.3,0,0,1-12.31,3.76,68.54,68.54,0,0,1-15.62,1.71,48,48,0,0,1-14-2,32.61,32.61,0,0,1-11.91-6.5,31.82,31.82,0,0,1-8.3-11.47q-3.13-7-3.13-17.09A75.87,75.87,0,0,1,577.65,93,69.87,69.87,0,0,1,581.8,79a66.93,66.93,0,0,1,7.28-13.19,50.59,50.59,0,0,1,10.59-11A49.16,49.16,0,0,1,614,47.22a55.34,55.34,0,0,1,18-2.79,68.56,68.56,0,0,1,12.84,1.42,60.11,60.11,0,0,1,12.45,3.66Z"/><path d="M730.88,83.79c.39-2,.69-3.83.92-5.42a29.15,29.15,0,0,0,.34-4.05c0-3.32-.91-5.9-2.73-7.72s-4.69-2.73-8.59-2.73a24.32,24.32,0,0,0-13.28,3.9,32.48,32.48,0,0,0-10.26,10.55c-.52.85-1,1.76-1.51,2.73a33.66,33.66,0,0,0-1.42,3.33c-.45,1.23-.89,2.65-1.32,4.24s-.86,3.47-1.32,5.62L682,141.41H658.9L688.2,0h23l-9.18,44.24a133.37,133.37,0,0,1-3.91,14.45h.39a40.31,40.31,0,0,1,12.5-10,41,41,0,0,1,8.25-3.12,36,36,0,0,1,9.33-1.18A33.74,33.74,0,0,1,739.13,46a26.43,26.43,0,0,1,8.69,4.74,22.48,22.48,0,0,1,5.91,7.62,23.72,23.72,0,0,1,2.15,10.35,52,52,0,0,1-.69,8c-.45,2.93-1,5.86-1.56,8.79L742,141.41H719Z"/></g><text class="cls-2" transform="translate(-99.08 194.41)"><tspan xml:space="preserve">           </tspan></text><text class="cls-3" transform="translate(296.92 194.41)"><tspan xml:space="preserve">  </tspan></text><text class="cls-4" transform="translate(322.7 194.41)">software</text></g></g><g id="Layer_2" data-name="Layer 2"><path class="cls-5" d="M407.43,6.27c-.13.05-.31-.07-.41.17.19,0,.36.12.48-.11.07,0,0-.08,0-.13Zm-4.22-.4c.25,0,.34-.19.46-.41-.32,0-.4.19-.53.34s-.15.06-.09.13.13,0,.2-.06ZM388.32,23.23a2.38,2.38,0,0,1,1.43,1.38,10.81,10.81,0,0,1,.94,2.34c.22,1,0,1.92.19,2.87.06.32.18.38.43.44s.39-.22.41-.4a2.6,2.6,0,0,1,.23-.68c.08-.19.22-.41,0-.64-.57-.74-.18-1.64-.42-2.44a.38.38,0,0,1,.17-.31,1.43,1.43,0,0,0,.63-.8,2.38,2.38,0,0,1,1.94-1.56,1.06,1.06,0,0,0,.3-.1,9.07,9.07,0,0,1,2.81-1.24.37.37,0,0,0,.36-.38v-.05a.36.36,0,0,1,.24-.43c.47-.09.82-.45,1.3-.49.23,0,.61-.08.64-.2.1-.32.47-.62.16-1,.24-.09.29.16.46.16a1.85,1.85,0,0,1,.47,0c0-.16-.09-.3.06-.46s.45-.44,0-.67c-.07,0,0-.14,0-.18.24-.16.5-.46.71-.44a.58.58,0,0,0,.68-.4c.12-.31.23-.62.32-.93a1.4,1.4,0,0,0-.58-1.28.79.79,0,0,0,.34-1s.15-.06.09-.13-.12,0-.15.06c-.25,0-.41.23-.61.28s0-.15,0-.21.17-.39-.14-.45-.31-.06-.13-.32a6.51,6.51,0,0,0,.43-.64c.12-.23.06-.29-.23-.25h-.18s0-.15.09-.21c.42-.39,1-.38,1.5-.56.12,0,.29,0,.19.24s0,.18,0,.15c.44-.16.6.24.88.46a3.28,3.28,0,0,0-.53-2,.68.68,0,0,0-.62-.41,1.05,1.05,0,0,1-.9-.34l-.12-.12a1,1,0,0,1-.24-.66c0-.19.22-.36-.22-.38-.13,0-.26-.14-.39,0a.44.44,0,0,1-.55.09.69.69,0,0,0-.94.23c-.54.75-1.1,1.5-1.63,2.26s-1.19,1.79-1.79,2.68c-.69,1.06-1.38,2.11-2,3.19-.51.87-1,1.74-1.46,2.64-.34.72-.55.9-1.23.48-.51-.32-.84-.06-1.16.15s-.32.11-.43-.11c-.69-1.38-1.45-2.72-2.23-4s-1.75-2.78-2.68-4.13c-.76-1.09-1.58-2.13-2.37-3.19a.79.79,0,0,0-1.09-.3h0c-.12.06-.27.2-.42,0s-.46.15-.7,0a.8.8,0,0,0,.14.45c.06.08.06.41-.1.44-.47.11-.58,1-1.3.58a1.24,1.24,0,0,1-.17.1c-.72.38-.75,1.1-.88,1.76,0,.18,0,.37.12.44.4-.18.52-.72.93-.74a5.24,5.24,0,0,1,1.36.23c.2,0,.16.23.17.33s-.16.07-.25.08-.18,0-.2.13c.26.43.83.7.7,1.36,0,.14,0,.31-.13.39s-.3.21-.44,0-.24-.16-.34,0a.3.3,0,0,0,0,.42l0,0c.12.13.19.31.32.41a.29.29,0,0,1,0,.43c-.3.17-.69.27-.13.61a.11.11,0,0,1,0,.15l0,0c-.43.37.27.61.11.94,0,0,0,.08.07.07.58,0,.9.67,1.54.51a.76.76,0,0,1-.33.31c-.13.07-.29.18-.26.36s.25.2.4.26.41-.1.64,0,.42.36.6.35c.48,0,.38.25.34.48s0,.54.31.59a.65.65,0,0,1,.51.39.89.89,0,0,0,.56.42c.36.09.79.1.8.64,0,.13.18.14.3.16s.36.12.36.16c0,.35.27.24.41.35.32.26,1,0,1,.67,0,.12.41.25.49.2Zm-4.26,6.87c-.26.1-.29.11-.32,0a.5.5,0,0,0-.49-.44c-.46,0-.45-.44-.6-.72,0-.1.24-.28,0-.31s-.14.22-.18.35a.47.47,0,0,1-.05.1c-.12-.15,0-.35-.18-.47-.22.16-.06.73-.6.58.06-.21.14-.42.19-.63a.22.22,0,0,0-.17-.24c-.12,0-.11.08-.15.16s.15.3-.15.26-.35-.29-.4-.52.12-.12.22-.1c0-.17.3-.09.21-.25a.62.62,0,0,1-.12-.61c.07-.16-.13-.27-.31-.21a.53.53,0,0,0-.39.63c0,.06.25.17,0,.23s-.22-.09-.24-.21a1,1,0,0,1,0-.25c0-.08-.41,0-.37-.24s.32,0,.46-.13a.31.31,0,0,0,.09-.22c0-.07-.11-.13-.17-.19-.15.28-.78-.13-.67.53-.11-.43-.23-.72-.69-.4a.16.16,0,0,1-.2-.07v0c-.17-.53-.87-.77-.8-1.44,0,0-.05-.15-.14-.08-.27.19-.28-.12-.44-.21.36.16.49,0,.74-.45-.49.32-.43.14-.44-.12a1,1,0,0,1,.54-1.1c.06,0,.28,0,.21-.17a.38.38,0,0,0-.36-.24,2.78,2.78,0,0,1-.91,0c-.44-.11-.65-.31-.48-.78.06-.14,0-.25-.08-.24-.44,0-.33-.3-.38-.53.22,0,.28.22.46.25s.09-.2,0-.25c-.38-.18-.38-.28,0-.33.17,0,.09-.15.1-.23s0-.22-.16-.22h-.33c-.29-.15.33-.15,0-.22-.57-.14-.47-.31-.11-.59.05,0,.05-.14.08-.24-.26.09-.4.39-.7.16s-.14-.45,0-.67,0-.53-.1-.77c0-.08,0-.11-.16,0-.42.3-.43.29-.66-.23.41,0,.88-.36.81-.73s-.53-.41-.88-.42a3.85,3.85,0,0,0,.21-1.84c-.27,0-.36.48-.65.19s.11-.67,0-1a.32.32,0,0,1,.18-.34c.12,0,.3.16.39-.07,0,0,.16-.06.09-.14s-.12,0-.15.07c-.24-.19-.89.06-.66-.63,0-.1-.1-.07-.19,0-.4.12-.44-.1-.39-.42.12,0,0,.25.2.23s.09-.13.09-.21a2.16,2.16,0,0,0,0-.36,1.47,1.47,0,0,1,.74-1.25c-.19,0-.32-.17-.57-.14.17.26,0,.45-.12.64a.14.14,0,0,1-.18.05h0c-.06,0-.15-.09-.1-.16.16-.23-.14-.82.53-.68a1.08,1.08,0,0,0,.32-.14,1.64,1.64,0,0,0-.41-.38c-.28-.23-.68-.23-.91-.58-.08-.12-.12-.1,0-.23s0-.28.26-.16c.45.23.94-.06,1.4.12a12.92,12.92,0,0,1-1.09-1,1.24,1.24,0,0,1,.05.74c-.22.05,0-.29-.29-.26s-.39-.28-.37-.4a.42.42,0,0,1,.5-.32c.12,0,.22-.08.35,0s.29-.11.35-.25.1-.37-.06-.42c-.39-.12-.24-.48-.41-.74a.34.34,0,0,1-.39.28h-.06a.19.19,0,0,1-.12-.24s0,0,0-.06,0-.55.43-.29c.06,0,.37-.13.37-.19,0-.33-.24,0-.34-.07s-.37,0-.39-.34.27-.38.45-.47,0,.24.23.28c.06-.19.5-.28.28-.51a.39.39,0,0,1-.06-.54.36.36,0,0,1,.23-.13c.25-.07.15-.2.14-.29a3.27,3.27,0,0,0-.17-.53c.28.07.78-.06.66.24s.35.4.24.56-.07.44-.28.53c0,0-.17-.07-.21,0s0,.15.08.22a1.46,1.46,0,0,0,.61.36c.14,0,.24.25.42.12s0-.31,0-.47-.14-.63.38-.55c.15,0,.17-.18.06-.2-.45-.1-.33-.53-.51-.78l.07-.08c.81.09,1.26.84,2,1.15V4.58a18.2,18.2,0,0,0-3.89-2.42,4.31,4.31,0,0,0-2.17-.48c-.54,0-1.24-.06-1.54.54a4.07,4.07,0,0,0-.63,2.52,4.77,4.77,0,0,1,.08,1c0,.67,0,1.34.06,2,0,1.45.27,2.89.26,4.34a4.14,4.14,0,0,0,0,1.49,8,8,0,0,1,.19,3.23,2.81,2.81,0,0,0,.21,1.4,2.58,2.58,0,0,1,.22,1.5,2.54,2.54,0,0,0,.4,2.07,11.84,11.84,0,0,1,.75,1.1,2.85,2.85,0,0,0,1.2,1c.22.12.25.21.12.44a7.74,7.74,0,0,1-.76.77c-.41.46-.49,1.12-.93,1.51a2.26,2.26,0,0,0-.64,1.91.75.75,0,0,0,.21.5,2.31,2.31,0,0,1,.65,1.85,2.39,2.39,0,0,0,.41,1.68,5.72,5.72,0,0,1,1,2.15,2.1,2.1,0,0,0,.51.89c.61.49.8,1.31,1.45,1.77a.26.26,0,0,1,.06.13,1.74,1.74,0,0,0,.78,1.06c.55.45,1.09.92.94,1.77a5.62,5.62,0,0,0,0,1.16,1,1,0,0,0,.65.91c.41.17.88.5,1.29,0,.17-.2.29-.14.49-.1s.55.16.72-.09.15-.33.25,0c0,.12.11.12.2.12.29,0,.6-.07.78.27,0,.06.24.07.35,0a2.2,2.2,0,0,0,1.52-.85.87.87,0,0,1,.5-.34,2.5,2.5,0,0,0,1.28-.93c.08-.13.19-.3.36-.28.56,0,.65-.4.81-.74s.22-.62.34-.93c.21-.52.38-.59,1-.86.25-.12.83-.19.61-.71a3.18,3.18,0,0,1,.05-1.59c.05-.53.48-1-.41-1.13a.77.77,0,0,0-.48-.85c-.09,0-.11-.42,0-.62a.27.27,0,0,0,0-.38l0,0c-.25-.19-.07.3-.28.18.06-.61.06-.6-.49-.39-.2.08-.52.33-.35-.22.08-.28-.07-.47-.39-.45s-.61-.14-.36-.57v-.21c0-.25,0-.46-.38-.23s-.58.15-.56-.32c.1,0,.21,0,.19-.16s0-.07,0-.11Zm12.1,1.48c-.1-.22-.08-.5-.35-.62.1.23.07.5.28.68a2.11,2.11,0,0,0,.06.62c.06.19,0,.2-.14.26a.36.36,0,0,1-.26,0c.06-.41-.3-.32-.51-.51,0,.32.09.62,0,.8a1.93,1.93,0,0,0-.26.65c0,.16,0,.28-.19.2s-.25,0-.23.22a.67.67,0,0,1-.14.57c-.14.12-.16-.24-.34-.22-.37.43-.21.89-.08,1.34,0,.1.12.22.09.3-.21.54.08,1.1,0,1.65,0,.12,0,.42.23.44a1.38,1.38,0,0,1,1.31,1.15,14.64,14.64,0,0,0,.63,1.54c0,.13.15.35.32.24s.43.11.46.21a1,1,0,0,0,.49.5,8.91,8.91,0,0,1,1.45,1,1.67,1.67,0,0,0,1.68.48,1.25,1.25,0,0,1,1-.12c.49.21,1-.12,1.52.23s1.11,0,1.6-.33c.32-.21.54-.49.1-.82a1.07,1.07,0,0,1-.15-.22.75.75,0,0,0,.6-.86.57.57,0,0,0,0-.14.73.73,0,0,1,.24-.77A15.81,15.81,0,0,0,407.47,38a11.33,11.33,0,0,1,1.42-1.81,1.53,1.53,0,0,0,.34-.7A4.49,4.49,0,0,1,410,33.8a3.33,3.33,0,0,0,.72-2.16,2.61,2.61,0,0,1,.52-1.71c.59-.59.39-1.06.19-1.64-.15-.4-.57-.63-.71-1a6.2,6.2,0,0,0-1.52-2.22c-.28-.25-.23-.36.13-.47,1.59-.49,2.24-1.83,2.84-3.18a5,5,0,0,0,.12-1.88,2,2,0,0,1,.16-.8,3,3,0,0,0,.35-1.39,10.29,10.29,0,0,1,.11-3.67,1.77,1.77,0,0,0,.1-.82,8.19,8.19,0,0,1,.11-2.37,5.36,5.36,0,0,0,0-1.6,3.47,3.47,0,0,1-.08-1.57,3.78,3.78,0,0,0,0-1.57A3.38,3.38,0,0,1,413,4.37c.11-.44.16-1-.44-1.2-.06,0-.26-.17,0-.22s.13-.1.12-.19a1.53,1.53,0,0,0-1.07-1.28,4.47,4.47,0,0,0-3.34.66,19.86,19.86,0,0,0-3.22,2,.73.73,0,0,0-.35.56c.09,0,.13,0,.19,0,.48-.36,1-.72,1.45-1,.07,0,.27-.26.39,0s-.17.18-.22.26c0,.26.49.07.28.38s-.14,1-.34,1.44c.32-.07.59-.2.88-.29s.41-.6.17-1c-.1-.18.08-.89.26-.94s.58-.42.39.23a.7.7,0,0,0,.12.44c.17.33.41.63,0,1,.29-.18.53,0,.78,0s.41-.13.42.15a.44.44,0,0,1-.34.47l-.93.27c.25.16.39.27.63.08s0,.53.39.26c.08-.05.16.34.23.55-.52-.09-.67,0-.73.34a.74.74,0,0,0-.11.1c-.3.35-.09.51.24.5a.89.89,0,0,1,.59.26c.06,0,.07.17.19.15s.16-.34.27-.05-.12.31-.25.36a1.71,1.71,0,0,1-.77.15c-.1,0-.22,0-.17.19a.14.14,0,0,0,.17.1l0,0c.15-.09.29,0,.45,0a.6.6,0,0,1,.6.6v0c0,.47-.2-.22-.35,0h0c-.1.48-.51.23-.76.34s-.34.13-.32.36.22.07.3.15.39,0,.56.15-.25.17-.18.33c.23.49.1.81-.46,1,.5.07.14.67.55.76v.14c-.51.13,0,.27,0,.4l-.06.07c-.34.11-.59.44-1,.34.3.2.49.42.37.78,0,.15,0,.1.13.1.4,0,.51.28.65.56-.11.12-.18,0-.25,0a.84.84,0,0,0-.8.22c-.2.2.15.31.2.49s.22.33-.07.47-.11.28-.11.46.06.69-.47.59c-.1,0-.16,0-.19.17-.08.4.17.8.58.73s.23.07.25.22-.63.24-.29.65c-.43,0-.38.35-.46.62s-.41.16-.47.4l-.11-.33a1.68,1.68,0,0,1-.2.34c-.08.09-.19.1-.1.28a.32.32,0,0,1-.13.43.33.33,0,0,1-.17,0c-.26,0-.43.17-.65.23s-.25.12,0,.25c.46.26.54.67.19,1-.19.18-.3.34-.17.62s0,.44-.31.46l-1.32.1c-.13,0-.33-.08-.33.15s0,.34.28.33a1.6,1.6,0,0,1,.48.11c-.28.16-.65.34-.41.63s0,.38-.14.54a2,2,0,0,1,1,.73,2.56,2.56,0,0,1-1.13.18c-.11,0-.3,0-.27.17.07.48-.58.4-.58.8H403c-.35-.06-.66,0-.73.43-.21-.21-.32-.44-.62-.46a.48.48,0,0,0-.53.48l-.06-.29c-.2-.05-.13.31-.35.21s-.09-.24-.22-.09,0,.19,0,.28.32.29.32.52a.92.92,0,0,0-.71.43l-.09.05c-.43.26-.43.26-.17.7a.57.57,0,0,1,0,.26.09.09,0,0,1-.08.1.1.1,0,0,1-.07,0c-.25-.13-.45-.23-.61.14,0,.11-.24.12-.38.1s-.29,0-.31.16c-.08.31-.31.31-.54.45-.56.33-.88.07-1.3-.21a2.47,2.47,0,0,1,.11,1.05c0,.15,0,.37-.21.44s-.17-.34-.32-.37Zm12-25.48c-.35,0-.35,0-.49.25.23.05.3-.17.49-.25Zm-4.37-.7a.38.38,0,0,0,0-.15s0-.12-.07,0,0,.09,0,.14Zm-.51,6.92-.06.07v0s0,0,0-.07Zm-26.74,7.86h-.08v.07h.07Z"/><path class="cls-6" d="M409.3,13.19c0-.13-.51-.27,0-.4v-.14c-.41-.09,0-.69-.55-.76.56-.18.69-.5.46-1-.07-.16.21-.18.18-.33s-.4,0-.56-.15-.28.09-.3-.15.21-.31.32-.36.66.14.76-.34h0c.15-.19.3.5.35,0a.6.6,0,0,0-.57-.63h0c-.16,0-.3-.06-.45,0a.15.15,0,0,1-.2,0s0,0,0-.05.07-.2.17-.19a1.71,1.71,0,0,0,.77-.15c.13,0,.31-.18.25-.36s-.18,0-.27,0-.13-.1-.19-.15a.89.89,0,0,0-.59-.26c-.33,0-.54-.15-.24-.5,0,0,.1-.06.11-.1.06-.35.21-.43.73-.34-.07-.21-.15-.6-.23-.55-.42.27-.19-.41-.39-.26s-.38.08-.63-.08l.93-.27a.44.44,0,0,0,.34-.47c0-.28-.28-.17-.42-.15s-.49-.2-.78,0c.39-.37.15-.67,0-1a.7.7,0,0,1-.12-.44c.19-.65-.23-.27-.39-.23s-.36.76-.26.94c.24.44.2.92-.17,1s-.56.22-.88.29c.2-.48,0-1,.34-1.44s-.31-.12-.28-.38c0-.08.34,0,.22-.26s-.32,0-.39,0c-.5.32-1,.68-1.45,1-.06,0-.1.1-.19,0A.73.73,0,0,1,405,4a19.86,19.86,0,0,1,3.22-2,4.47,4.47,0,0,1,3.34-.66,1.54,1.54,0,0,1,1.07,1.28c0,.09,0,.17-.12.19-.28,0-.08.19,0,.22.6.24.55.76.44,1.2a3.38,3.38,0,0,0,.08,1.38,3.78,3.78,0,0,1,0,1.57,3.34,3.34,0,0,0,.08,1.57,5.36,5.36,0,0,1,0,1.6,8.19,8.19,0,0,0-.11,2.37,1.75,1.75,0,0,1-.1.82,10.29,10.29,0,0,0-.11,3.67,3,3,0,0,1-.35,1.39,2,2,0,0,0-.16.8,5.18,5.18,0,0,1-.12,1.88c-.6,1.35-1.25,2.69-2.84,3.18-.36.11-.41.22-.13.47a6.2,6.2,0,0,1,1.52,2.22c.14.35.56.58.71,1,.2.58.4,1-.19,1.64a2.65,2.65,0,0,0-.64,1.72,3.33,3.33,0,0,1-.72,2.16,4.49,4.49,0,0,0-.78,1.67,1.53,1.53,0,0,1-.34.7,11.33,11.33,0,0,0-1.42,1.81A15.81,15.81,0,0,1,405.42,40a.71.71,0,0,0-.24.77.74.74,0,0,1-.42,1l-.14,0a1.07,1.07,0,0,0,.15.22c.44.33.22.61-.1.82-.49.33-1.17.63-1.6.33s-1,0-1.52-.23a1.25,1.25,0,0,0-1,.12,1.67,1.67,0,0,1-1.68-.48,8.91,8.91,0,0,0-1.45-1,1,1,0,0,1-.49-.5.28.28,0,0,0-.46-.21c-.32.22-.27-.11-.32-.24a14.64,14.64,0,0,1-.63-1.54,1.37,1.37,0,0,0-1.27-1.09c-.27,0-.26-.32-.23-.44.11-.55-.18-1.11,0-1.65a1.42,1.42,0,0,0-.09-.3c-.13-.45-.29-.91.08-1.34.18,0,.14.35.34.22s.15-.37.14-.57-.09-.37.23-.22.17,0,.19-.2a1.93,1.93,0,0,1,.26-.65c.11-.18,0-.48,0-.8.21.19.57.1.51.51,0,.08.14.12.26,0s.24-.07.14-.26,0-.41-.06-.62l.07-.06c.15,0,.13.33.35.25s.17-.29.21-.44a2.47,2.47,0,0,0-.11-1.05c.42.28.74.54,1.3.21.23-.14.46-.14.54-.45,0-.11.17-.17.31-.16s.34,0,.38-.1c.16-.37.36-.27.61-.14a.09.09,0,0,0,.13,0,.1.1,0,0,0,0-.07.57.57,0,0,0,0-.26c-.26-.44-.26-.44.17-.7l.09-.05a.92.92,0,0,1,.71-.43c0-.23-.27-.3-.32-.52s-.12-.2,0-.28.15,0,.22.09c.22.1.15-.26.35-.21l.06.29c0-.32.18-.49.53-.48s.41.25.62.46c.07-.45.38-.49.73-.43h.15c0-.4.65-.32.58-.8,0-.16.16-.2.27-.17a2.56,2.56,0,0,0,1.13-.18,2,2,0,0,0-.95-.73c.12-.16.38-.25.14-.54s.13-.47.41-.63a1.67,1.67,0,0,0-.48-.11c-.26,0-.28-.18-.28-.33s.2-.14.33-.15c.44,0,.87-.08,1.32-.1s.43-.21.31-.46a.52.52,0,0,1,.17-.62.58.58,0,0,0-.19-1c-.23-.13-.16-.2,0-.25a2,2,0,0,1,.65-.23.32.32,0,0,0,.34-.3.33.33,0,0,0,0-.17c-.09-.18,0-.19.1-.28a1.68,1.68,0,0,0,.2-.34l.11.33c.06-.24.4-.18.47-.4s0-.61.46-.62c-.34-.41.34-.36.29-.65s0-.28-.25-.22-.66-.33-.58-.73c0-.16.09-.19.19-.17.53.1.48-.31.47-.59s-.07-.36.11-.46.11-.31.07-.47-.4-.29-.2-.49a.84.84,0,0,1,.8-.22c.07,0,.14.12.25,0-.14-.28-.25-.59-.65-.56-.1,0-.18.05-.13-.1.12-.36-.07-.58-.37-.78.44.1.69-.23,1-.34a.09.09,0,0,0,.15.06C409.39,13.21,409.34,13.23,409.3,13.19Zm-2.49-9.61c.67,0,1.07-.61,1.67-.38.09,0,.13-.1.11-.19s-.12-.11-.21-.11a2.33,2.33,0,0,0-1.57.68Z"/><path class="cls-6" d="M374.63,13.74c-.09.23-.27,0-.39.07a.32.32,0,0,0-.18.34c.14.34-.26.71,0,1s.38-.22.65-.19a3.85,3.85,0,0,1-.21,1.84c.35,0,.79-.06.88.42s-.4.75-.81.73c.23.52.24.53.66.23.11-.08.13,0,.16,0,.1.24.28.48.1.77s-.29.43,0,.67.44-.07.7-.16c0,.1,0,.2-.08.24-.36.28-.46.45.11.59.3.07-.32.07,0,.22h.41c.15,0,.17.11.16.22s.07.22-.1.23c-.43,0-.43.15,0,.33.08.05,0,.16,0,.25s-.24-.25-.46-.25c0,.23-.06.54.38.53.07,0,.14.1.08.24-.17.47,0,.67.48.78a2.78,2.78,0,0,0,.91,0,.38.38,0,0,1,.36.24c.07.13-.15.14-.21.17a1,1,0,0,0-.54,1.1c0,.26-.05.44.44.12-.25.4-.38.61-.74.45.16.09.17.4.44.21.09-.07.14,0,.14.08-.07.67.63.91.8,1.44a.15.15,0,0,0,.19.1h0c.46-.32.58,0,.69.4-.11-.66.52-.25.67-.53.06.06.15.12.17.19a.31.31,0,0,1-.09.22c-.14.1-.42-.19-.46.13s.34,0,.37.24a.54.54,0,0,1,0,.25c0,.08,0,.26.24.21s0-.17,0-.23c-.1-.36.09-.53.39-.63s.38,0,.31.21a.62.62,0,0,0,.12.61c.09.16-.24.08-.21.25-.1,0-.28-.22-.22.1s.07.48.4.52.12-.17.15-.26,0-.19.15-.16a.22.22,0,0,1,.17.24,2.52,2.52,0,0,1-.19.63c.54.15.38-.42.6-.58.21.12.06.32.18.47l.05-.1c0-.13-.09-.38.18-.35s0,.21.05.31c.15.28.14.68.6.72a.5.5,0,0,1,.49.44c0,.15.06.14.32,0l.07.06c0,.47.24.53.56.32s.36,0,.38.23v.21c-.25.43-.1.59.36.57s.47.17.39.45c-.17.55.15.3.35.22.55-.21.55-.22.49.39.21.12,0-.37.28-.18a.27.27,0,0,1,.11.36l0,0c-.12.2-.1.57,0,.62a.77.77,0,0,1,.48.85c.89.12.42.67.41,1.13s-.28,1,0,1.59-.36.59-.61.71c-.6.27-.77.34-1,.86-.12.31-.2.63-.34.93s-.25.79-.81.74c-.17,0-.28.15-.36.28a2.5,2.5,0,0,1-1.28.93.87.87,0,0,0-.5.34,2.2,2.2,0,0,1-1.52.85h-.35c-.18-.34-.49-.25-.78-.27-.09,0-.17,0-.2-.12-.1-.32-.12-.19-.25,0s-.49.13-.72.09-.32-.1-.49.1c-.41.48-.88.15-1.29,0a1,1,0,0,1-.65-.91,5.62,5.62,0,0,1,0-1.16c.15-.85-.39-1.32-.94-1.77a1.74,1.74,0,0,1-.78-1.06.26.26,0,0,0-.06-.13c-.65-.46-.84-1.28-1.45-1.77a2.1,2.1,0,0,1-.51-.89,5.72,5.72,0,0,0-1-2.15,2.39,2.39,0,0,1-.41-1.68A2.31,2.31,0,0,0,371,29a.73.73,0,0,1-.21-.5,2.26,2.26,0,0,1,.64-1.91c.44-.39.52-1,.93-1.51.24-.27.58-.43.76-.77s.1-.32-.12-.44a2.85,2.85,0,0,1-1.2-1,11.84,11.84,0,0,0-.75-1.1,2.54,2.54,0,0,1-.4-2.07,2.58,2.58,0,0,0-.22-1.5,2.81,2.81,0,0,1-.21-1.4,8,8,0,0,0-.19-3.23,4.14,4.14,0,0,1,0-1.49c0-1.45-.24-2.89-.26-4.34,0-.66-.09-1.33-.06-2a4.77,4.77,0,0,0-.08-1,4.07,4.07,0,0,1,.63-2.52c.3-.6,1-.54,1.54-.54a4.31,4.31,0,0,1,2.17.48,18.2,18.2,0,0,1,3.89,2.42v.19c-.73-.31-1.18-1.06-2-1.15-.12-.16-.29-.07-.44-.09-.35-.66-1-.45-1.59-.53.16.17.22.44.34.4.46-.2.83.2,1.26.13.06.17.27.06.36.17s.06.68.51.78c.11,0,.09.22-.06.2-.52-.08-.37.3-.38.55s.11.35,0,.47-.28-.08-.42-.12a1.46,1.46,0,0,1-.61-.36c-.07-.07-.11-.14-.08-.22s.16,0,.21-.05c.21-.09.17-.35.28-.53s-.39-.16-.24-.56-.38-.17-.66-.24a3.27,3.27,0,0,1,.17.53c0,.09.11.22-.14.29a.38.38,0,0,0-.31.44.43.43,0,0,0,.14.23c.22.23-.22.32-.28.51-.22,0-.07-.36-.23-.28s-.48.11-.45.47.26.23.39.34.32-.26.34.07c0,.06-.31.23-.37.19-.39-.26-.34.15-.43.29a.18.18,0,0,0,0,.26l.06,0a.33.33,0,0,0,.43-.21.14.14,0,0,0,0-.06c.17.26,0,.62.41.74.16,0,.11.29.06.42s-.16.31-.35.25-.23.06-.35,0a.42.42,0,0,0-.5.32c0,.12.11.44.37.4s.07.31.29.26a1.24,1.24,0,0,0-.05-.74,12.92,12.92,0,0,0,1.09,1c-.46-.18-.95.11-1.4-.12-.24-.12-.19,0-.26.16s-.05.11,0,.23c.23.35.63.35.91.58a1.84,1.84,0,0,1,.41.38c-.11.05-.23.16-.32.14-.67-.14-.37.45-.53.68-.05.07,0,.12.1.16a.14.14,0,0,0,.18-.05h0c.13-.19.29-.38.12-.64a1.83,1.83,0,0,1,.57.14,1.47,1.47,0,0,0-.74,1.25,2.16,2.16,0,0,1,0,.36c0,.08,0,.2-.09.21s-.08-.18-.2-.23c-.05.32,0,.54.39.42.09,0,.22,0,.19.05-.23.69.42.44.66.63Z"/><path class="cls-6" d="M402.62,14.37a.79.79,0,0,1-.34,1,1.4,1.4,0,0,1,.58,1.28c-.09.31-.2.62-.32.93a.58.58,0,0,1-.68.4c-.21,0-.47.28-.71.44,0,0-.09.14,0,.18.44.23.15.49,0,.67s-.09.3-.06.46a1.85,1.85,0,0,0-.47,0c-.17,0-.22-.25-.46-.16.31.38-.06.68-.16,1,0,.12-.41.18-.64.2-.48,0-.83.4-1.3.49a.36.36,0,0,0-.24.43.36.36,0,0,1-.31.42h-.05a9.07,9.07,0,0,0-2.81,1.24,1.06,1.06,0,0,1-.3.1A2.38,2.38,0,0,0,392.41,25a1.43,1.43,0,0,1-.63.8.38.38,0,0,0-.17.31c.24.8-.15,1.7.42,2.44.17.23,0,.45,0,.64a2.6,2.6,0,0,0-.23.68c0,.18,0,.48-.41.4s-.37-.12-.43-.44c-.17-1,0-1.92-.19-2.87a10.81,10.81,0,0,0-.94-2.34,2.34,2.34,0,0,0-1.44-1.38c-.11-.08,0-.33-.23-.35a.62.62,0,0,0,.16.42c-.08,0-.47-.08-.49-.2-.09-.63-.72-.41-1-.67s-.45,0-.41-.35a1.92,1.92,0,0,0-.36-.16c-.13,0-.29,0-.3-.16,0-.54-.44-.55-.8-.64a.89.89,0,0,1-.56-.42.65.65,0,0,0-.51-.39c-.29,0-.36-.29-.31-.59s.14-.53-.34-.48c-.18,0-.39-.23-.6-.35s-.43.06-.64,0-.36,0-.4-.26.13-.29.26-.36a.76.76,0,0,0,.33-.31c-.64.16-1-.53-1.54-.51,0,0-.08-.06-.07-.07.16-.33-.54-.57-.11-.94a.12.12,0,0,0,0-.16l0,0c-.56-.34-.17-.44.13-.61.14-.09.27-.25,0-.43s-.2-.28-.32-.41a.3.3,0,0,1,0-.42l0,0c.1-.13.31,0,.34,0,.14.25.3.11.44,0s.1-.25.13-.39c.13-.66-.44-.93-.7-1.36,0-.13.12-.11.2-.13s.26.05.25-.08,0-.3-.17-.33a5.24,5.24,0,0,0-1.36-.23c-.41,0-.53.56-.93.74-.14-.07-.15-.26-.12-.44.13-.66.16-1.38.88-1.76.07,0,.15-.12.17-.1.72.45.83-.47,1.3-.58.16,0,.16-.36.1-.44a.8.8,0,0,1-.14-.45c.24.12.46-.34.7,0s.3.05.42,0a.8.8,0,0,1,1.1.27v0c.79,1.06,1.61,2.1,2.37,3.19.93,1.35,1.84,2.71,2.68,4.13s1.54,2.66,2.23,4c.11.22.15.3.43.11a1,1,0,0,1,1.16-.15c.68.42.89.24,1.23-.48.44-.9,1-1.77,1.46-2.64.64-1.08,1.33-2.13,2-3.19.6-.89,1.18-1.79,1.79-2.68s1.09-1.51,1.63-2.26a.69.69,0,0,1,.94-.23c.22.11.39.12.55-.09s.26,0,.39,0c.44,0,.21.19.22.38a1,1,0,0,0,.24.66l.12.12a1.05,1.05,0,0,0,.9.34.68.68,0,0,1,.62.41,3.28,3.28,0,0,1,.53,2c-.28-.22-.44-.62-.88-.46-.08,0-.06-.09,0-.15s-.07-.28-.19-.24c-.5.18-1.08.17-1.5.56-.07.06-.15.12-.09.21s.12.06.18,0c.29,0,.35,0,.23.25a6.51,6.51,0,0,1-.43.64c-.18.26-.18.26.13.32s.14.29.14.45-.05.12,0,.21.36-.28.61-.28Zm-8.46,6.81c.52-.37,1-.73,1.56-1.11a.26.26,0,0,0,.06-.35c-.06-.07-.16,0-.24.12a4.84,4.84,0,0,1-.7.57C394.59,20.62,394.25,20.75,394.16,21.18Zm-6.33-.79c-.21-.29-.31-.74-.81-.77a1.06,1.06,0,0,0,.81.77Zm.08.09a.24.24,0,0,0,.24.25c.15,0,.09-.07.08-.1a.27.27,0,0,0-.32-.15Z"/><path class="cls-6" d="M403.14,5.8c.13-.15.21-.36.53-.34-.12.22-.21.39-.46.41Z"/><path class="cls-6" d="M396.09,31.64c-.21-.18-.18-.45-.28-.68.27.12.25.4.35.62Z"/><path class="cls-6" d="M408.16,6.1c-.19.08-.26.3-.49.25C407.81,6.1,407.81,6.1,408.16,6.1Z"/><path class="cls-6" d="M407.5,6.33c-.12.23-.29.16-.48.11.1-.24.28-.12.41-.17S407.48,6.31,407.5,6.33Z"/><path class="cls-6" d="M384.06,30.1l.21-.21V30a.25.25,0,0,1-.19.16Z"/><path class="cls-6" d="M403.79,5.4l-.08-.05V5.21s.07,0,.07,0A.25.25,0,0,1,403.79,5.4Z"/><path class="cls-6" d="M403.25,5.87a.1.1,0,0,1-.16.06c0-.06,0-.09.09-.13Z"/><path class="cls-6" d="M374.57,13.67c0-.08.11-.13.15-.07s-.05.1-.09.14Z"/><path class="cls-6" d="M402.56,14.3a.09.09,0,0,1,.15-.06c.05.06,0,.09-.09.13Z"/><path class="cls-6" d="M376.54,20.18l-.06.06h-.07v-.07Z"/><path class="cls-6" d="M407.43,6.27l.07-.07s.07.09,0,.13S407.45,6.3,407.43,6.27Z"/><path class="cls-5" d="M406.81,3.58a2.33,2.33,0,0,1,1.57-.68c.09,0,.19,0,.21.11s0,.22-.11.19C407.88,2.93,407.48,3.56,406.81,3.58Z"/><path class="cls-5" d="M409.3,13.19s.15.06.09.13-.12,0-.15-.06Z"/><path class="cls-5" d="M375.32,3.43c-.43.07-.8-.33-1.26-.13-.12,0-.18-.23-.34-.4.62.08,1.24-.13,1.59.53Z"/><path class="cls-5" d="M375.31,3.43c.15,0,.32-.07.44.09l-.07.08c-.09-.11-.3,0-.36-.17Z"/><path class="cls-5" d="M394.16,21.18c.07-.43.43-.56.68-.77a4.84,4.84,0,0,0,.7-.57c.08-.1.18-.19.24-.12a.27.27,0,0,1-.06.35C395.25,20.45,394.68,20.81,394.16,21.18Z"/><path class="cls-5" d="M387.83,20.39a1.06,1.06,0,0,1-.81-.77C387.52,19.65,387.62,20.1,387.83,20.39Z"/><path class="cls-5" d="M387.91,20.48c.2-.06.28,0,.32.15s-.06.1-.08.1A.52.52,0,0,1,387.91,20.48Z"/><path class="cls-5" d="M388.25,23.3c-.09-.12-.2-.22-.16-.42.26,0,.12.27.23.35Z"/></g></svg>